HIERARCHY
ROOT Hips
{
	OFFSET 0.00000 0.00000 0.00000
	CHANNELS 6 Xposition Yposition Zposition Zrotation Yrotation Xrotation 
	JOINT LHipJoint
	{
		OFFSET 0 0 0
		CHANNELS 3 Zrotation Yrotation Xrotation
		JOINT LeftHip
		{
			OFFSET 1.46561 -1.72757 0.83774
			CHANNELS 3 Zrotation Yrotation Xrotation
			JOINT LeftKnee
			{
				OFFSET 2.48915 -6.83890 0.00000
				CHANNELS 3 Zrotation Yrotation Xrotation
				JOINT LeftAnkle
				{
					OFFSET 2.60555 -7.15868 0.00000
					CHANNELS 3 Zrotation Yrotation Xrotation
					JOINT LeftToe
					{
						OFFSET 0.19248 -0.52884 2.26738
						CHANNELS 3 Zrotation Yrotation Xrotation
						End Site
						{
							OFFSET 0.00000 -0.00000 1.17015
						}
					}
				}
			}
		}
	}
	JOINT RHipJoint
	{
		OFFSET 0 0 0
		CHANNELS 3 Zrotation Yrotation Xrotation
		JOINT RightHip
		{
			OFFSET -1.46918 -1.72757 0.83774
			CHANNELS 3 Zrotation Yrotation Xrotation
			JOINT RightKnee
			{
				OFFSET -2.49034 -6.84216 0.00000
				CHANNELS 3 Zrotation Yrotation Xrotation
				JOINT RightAnkle
				{
					OFFSET -2.65971 -7.30750 0.00000
					CHANNELS 3 Zrotation Yrotation Xrotation
					JOINT RightToe
					{
						OFFSET -0.19227 -0.52827 2.30785
						CHANNELS 3 Zrotation Yrotation Xrotation
						End Site
						{
							OFFSET -0.00000 -0.00000 1.18972
						}
					}
				}
			}
		}
	}
	JOINT lowerback
	{
		OFFSET 0 0 0
		CHANNELS 3 Zrotation Yrotation Xrotation
		JOINT Chest
		{
			OFFSET 0.02432 2.19909 -0.28000
			CHANNELS 3 Zrotation Yrotation Xrotation
			JOINT Chest2
			{
				OFFSET 0.03714 2.21816 -0.15261
				CHANNELS 3 Zrotation Yrotation Xrotation
				JOINT lowerneck
				{
					OFFSET 0 0 0
					CHANNELS 3 Zrotation Yrotation Xrotation
					JOINT Neck
					{
						OFFSET -0.01896 1.56165 0.21681
						CHANNELS 3 Zrotation Yrotation Xrotation
						JOINT Head
						{
							OFFSET 0.02744 1.56009 0.06764
							CHANNELS 3 Zrotation Yrotation Xrotation
							End Site
							{
								OFFSET 0.01212 1.60574 0.00298
							}
						}
					}
				}
				JOINT LeftCollar
				{
					OFFSET 0 0 0
					CHANNELS 3 Zrotation Yrotation Xrotation
					JOINT LeftShoulder
					{
						OFFSET 3.05595 1.48048 -0.60794
CHANNELS 3 Zrotation Xrotation Yrotation
						JOINT LeftElbow
						{
OFFSET 0 -5.206070 -0.000000
CHANNELS 3 Zrotation Xrotation Yrotation
							JOINT LeftWrist
							{
OFFSET 0 -3.399610 0.000000
CHANNELS 3 Zrotation Xrotation Yrotation
								JOINT lhand
								{
									OFFSET 0 0 0
CHANNELS 3 Zrotation Xrotation Yrotation
									JOINT LFingers
									{
OFFSET 0 -0.519690 0.000000
CHANNELS 3 Zrotation Xrotation Yrotation
										End Site
										{
OFFSET 0 -0.418990 0.000000
										}
									}
								}
								JOINT LThumb
								{
OFFSET 0 0.000000 0.000000
CHANNELS 3 Zrotation Xrotation Yrotation
									End Site
									{
OFFSET 0 -0.425390 0.425390
									}
								}
							}
						}
					}
				}
				JOINT RightCollar
				{
					OFFSET 0 0 0
					CHANNELS 3 Zrotation Yrotation Xrotation
					JOINT RightShoulder
					{
						OFFSET -2.99052 1.57608 -0.69102
CHANNELS 3 Zrotation Xrotation Yrotation
						JOINT RightElbow
						{
OFFSET 0 -5.322140 0.000000
CHANNELS 3 Zrotation Xrotation Yrotation
							JOINT RightWrist
							{
OFFSET 0 -3.512080 0.000000
CHANNELS 3 Zrotation Xrotation Yrotation
								JOINT rhand
								{
									OFFSET 0 0 0
CHANNELS 3 Zrotation Xrotation Yrotation
									JOINT RFingers
									{
OFFSET 0 -0.586680 0.000000
CHANNELS 3 Zrotation Xrotation Yrotation
										End Site
										{
OFFSET 0 -0.473000 0.000000
										}
									}
								}
								JOINT RThumb
								{
OFFSET 0 0.000000 0.000000
CHANNELS 3 Zrotation Xrotation Yrotation
									End Site
									{
OFFSET 0 -0.480220 0.480220
									}
								}
							}
						}
					}
				}
			}
		}
	}
}
MOTION
Frames: 11
Frame Time: 0.008333333333333333
0.520000 17.570800 -13.792800 -1.743000 -1.883600 5.279400 0.000000 0.000000 0.000000 -17.396800 2.719400 -11.151000 0.868600 5.942400 16.617500 0.376100 0.552600 -11.797200 0.000000 0.038000 0.104500 0.000000 0.000000 0.000000 19.616700 1.612500 -11.139200 -1.071900 -6.581500 18.481400 -0.520000 2.925300 -12.933800 -0.335500 -3.722200 10.296400 0.343000 -0.358000 -2.857300 1.598100 -0.556400 2.505500 1.420400 -0.292500 4.197700 -2.195400 0.280100 -13.902000 0.713700 0.767200 29.624800 0.755400 0.182300 12.016600 0.000000 -0.000000 0.000000 1.253200 -4.627200 -25.375000 8.407300 -14.210900 1.049900 25.161700 -3.357900 2.984500 0.000000 0.000000 0.000000 -7.125000 0.000000 0.000000 -1.100500 26.682700 -0.489200 0.000000 -0.000000 0.000000 -2.347900 -3.537900 8.704100 -12.660200 -20.787300 -2.331300 -21.245600 40.435600 24.986600 0.000000 0.000000 0.000000 7.125000 0.000000 -0.000000 9.112700 56.312700 -2.542900
0.519882 17.570808 -13.794844 -1.750204 -1.885421 5.298548 0.000000 0.000000 0.000000 -17.390814 2.714846 -11.189165 0.869796 5.946582 16.629448 0.376086 0.551683 -11.796641 0.000000 0.035291 0.096976 0.000000 0.000000 0.000000 19.625296 1.617221 -11.170480 -1.072614 -6.583642 18.487718 -0.519496 2.924705 -12.927238 -0.333366 -3.710608 10.263861 0.339147 -0.351554 -2.850563 1.603018 -0.547544 2.495562 1.428177 -0.288236 4.183313 -2.181521 0.285928 -13.921279 0.725301 0.768856 29.652218 0.757890 0.185820 12.031376 0.000000 0.000000 0.000000 1.272079 -4.636992 -25.380257 8.411264 -14.217364 1.050840 25.195530 -3.360690 3.021977 0.000000 0.000000 0.000000 -7.125000 0.000000 0.000000 -1.075008 26.640372 -0.478933 0.000000 0.000000 0.000000 -2.346386 -3.535775 8.688839 -12.650436 -20.772804 -2.327848 -21.290417 40.507486 24.937979 0.000000 0.000000 0.000000 7.125000 0.000000 0.000000 9.043821 56.272469 -2.514574
0.518996 17.571200 -13.797032 -1.745324 -1.861984 5.305848 0.000000 0.000000 0.000000 -17.391648 2.721235 -11.211844 0.869600 5.945708 16.626924 0.375388 0.522021 -11.774220 0.000000 0.015580 0.042765 0.000000 0.000000 0.000000 19.624844 1.633000 -11.184432 -1.073324 -6.585772 18.493716 -0.519316 2.890940 -12.929292 -0.331824 -3.701889 10.239427 0.316888 -0.353940 -2.829569 1.608499 -0.549343 2.484052 1.446372 -0.289824 4.159857 -2.200682 0.287296 -13.901978 0.739479 0.771412 29.650031 0.766755 0.186792 12.026306 0.000000 0.000000 0.000000 1.292231 -4.641989 -25.409115 8.419701 -14.230941 1.052900 25.125159 -3.309397 2.926097 0.000000 0.000000 0.000000 -7.125000 0.000000 0.000000 -1.128034 26.748046 -0.499675 0.000000 0.000000 0.000000 -2.354955 -3.520521 8.723497 -12.656170 -20.781422 -2.329871 -21.270951 40.469279 24.918426 0.000000 0.000000 0.000000 7.125000 0.000000 0.000000 9.055577 56.248419 -2.512615
0.518882 17.571206 -13.797884 -1.741070 -1.861342 5.307355 0.000000 0.000000 0.000000 -17.395158 2.702678 -11.211227 0.869600 5.945894 16.627482 0.375082 0.534266 -11.774303 0.000000 0.022144 0.060685 0.000000 0.000000 0.000000 19.618736 1.635725 -11.190685 -1.073918 -6.587554 18.499056 -0.519700 2.896285 -12.933918 -0.334734 -3.718045 10.284620 0.313731 -0.347460 -2.838166 1.601294 -0.540451 2.487436 1.441182 -0.285438 4.167985 -2.166496 0.287134 -13.932612 0.727499 0.766599 29.694970 0.756220 0.186540 12.050833 0.000000 0.000000 0.000000 1.333103 -4.654379 -25.449278 8.429607 -14.246799 1.055372 25.163648 -3.383700 3.003431 0.000000 0.000000 0.000000 -7.125000 0.000000 0.000000 -1.099247 26.661808 -0.489206 0.000000 0.000000 0.000000 -2.341732 -3.535328 8.687272 -12.633221 -20.747396 -2.321760 -21.374799 40.630324 24.942958 0.000000 0.000000 0.000000 7.125000 0.000000 0.000000 8.956930 56.295277 -2.495076
0.518568 17.571308 -13.799312 -1.740576 -1.857028 5.313261 0.000000 0.000000 0.000000 -17.394420 2.699064 -11.223417 0.869592 5.945776 16.627120 0.374768 0.530320 -11.767563 0.000000 0.019291 0.053078 0.000000 0.000000 0.000000 19.619372 1.641121 -11.202185 -1.074224 -6.588464 18.501700 -0.519692 2.889359 -12.934216 -0.333596 -3.711907 10.267633 0.305863 -0.343355 -2.834179 1.601144 -0.534503 2.482971 1.445880 -0.282660 4.160963 -2.163396 0.285844 -13.932311 0.736278 0.761251 29.712822 0.758396 0.185416 12.057945 0.000000 0.000000 0.000000 1.363880 -4.666082 -25.474227 8.434785 -14.255217 1.056596 25.184236 -3.427472 3.058242 0.000000 0.000000 0.000000 -7.125000 0.000000 0.000000 -1.083937 26.600677 -0.483887 0.000000 0.000000 0.000000 -2.338820 -3.534056 8.683500 -12.621775 -20.730482 -2.317704 -21.449514 40.729077 24.942861 0.000000 0.000000 0.000000 7.125000 0.000000 0.000000 8.877898 56.310811 -2.476194
0.518170 17.571400 -13.800720 -1.740611 -1.853690 5.317751 0.000000 0.000000 0.000000 -17.393049 2.697320 -11.233942 0.869550 5.945650 16.626661 0.374390 0.526910 -11.761120 0.000000 0.014109 0.038838 0.000000 0.000000 0.000000 19.620651 1.644890 -11.211921 -1.074480 -6.589140 18.503820 -0.519580 2.883969 -12.934099 -0.332240 -3.704229 10.246066 0.299550 -0.338909 -2.830059 1.600450 -0.528119 2.478719 1.449170 -0.279569 4.154049 -2.164760 0.282489 -13.925798 0.748882 0.752828 29.726992 0.762231 0.183010 12.062241 0.000000 0.000000 0.000000 1.396876 -4.679932 -25.496853 8.439711 -14.263121 1.057830 25.218427 -3.487741 3.133574 0.000000 0.000000 0.000000 -7.125000 0.000000 0.000000 -1.058495 26.516555 -0.474618 0.000000 0.000000 0.000000 -2.335189 -3.532170 8.680699 -12.611388 -20.715158 -2.313979 -21.523871 40.825604 24.950111 0.000000 0.000000 0.000000 7.125000 0.000000 0.000000 8.802519 56.333794 -2.459838
0.517864 17.571412 -13.801956 -1.744013 -1.851524 5.321261 0.000000 0.000000 0.000000 -17.388195 2.695568 -11.245654 0.870072 5.947252 16.631533 0.374288 0.524948 -11.758239 0.000000 0.008786 0.024088 0.000000 0.000000 0.000000 19.625553 1.645484 -11.219109 -1.074240 -6.588420 18.501659 -0.519340 2.880736 -12.930763 -0.330584 -3.695234 10.220894 0.298284 -0.333959 -2.825379 1.600072 -0.521267 2.473703 1.449872 -0.276227 4.146134 -2.167761 0.278259 -13.916318 0.762995 0.742946 29.739946 0.766689 0.180027 12.065552 0.000000 0.000000 0.000000 1.431046 -4.694483 -25.511808 8.445057 -14.271714 1.059180 25.258244 -3.554191 3.216687 0.000000 0.000000 0.000000 -7.125000 0.000000 0.000000 -1.029046 26.423656 -0.463626 0.000000 0.000000 0.000000 -2.331284 -3.529824 8.675647 -12.602311 -20.701778 -2.310787 -21.586508 40.908228 24.958338 0.000000 0.000000 0.000000 7.125000 0.000000 0.000000 8.739937 56.355411 -2.446771
0.517558 17.571500 -13.803268 -1.749454 -1.848785 5.324054 0.000000 0.000000 0.000000 -17.381038 2.694067 -11.257674 0.870712 5.949451 16.637910 0.374172 0.522918 -11.755221 0.000000 0.000852 0.002278 0.000000 0.000000 0.000000 19.633062 1.642848 -11.224847 -1.073688 -6.586763 18.496690 -0.518830 2.879052 -12.925034 -0.328874 -3.685999 10.194765 0.299531 -0.329439 -2.819048 1.600698 -0.515157 2.467871 1.450190 -0.273107 4.136240 -2.173161 0.273571 -13.905162 0.776915 0.733126 29.751441 0.771477 0.176795 12.067849 0.000000 0.000000 0.000000 1.463659 -4.709212 -25.510987 8.451624 -14.282241 1.060752 25.295693 -3.610098 3.288292 0.000000 0.000000 0.000000 -7.125000 0.000000 0.000000 -1.001373 26.343410 -0.453080 0.000000 0.000000 0.000000 -2.329532 -3.527828 8.670548 -12.595015 -20.690950 -2.308220 -21.621211 40.965392 24.965887 0.000000 0.000000 0.000000 7.125000 0.000000 0.000000 8.706485 56.370452 -2.440490
0.517252 17.571500 -13.804508 -1.756598 -1.843166 5.325112 0.000000 0.000000 0.000000 -17.371553 2.689582 -11.267510 0.871512 5.952001 16.645254 0.373968 0.521656 -11.752307 0.000000 -0.007810 -0.021489 0.000000 0.000000 0.000000 19.642483 1.634861 -11.228713 -1.072840 -6.584219 18.489106 -0.518272 2.880937 -12.916977 -0.328084 -3.681620 10.182676 0.304474 -0.325551 -2.811366 1.601476 -0.510023 2.462711 1.448547 -0.270379 4.126458 -2.177033 0.268251 -13.898335 0.787386 0.723226 29.763487 0.774737 0.173139 12.071321 0.000000 0.000000 0.000000 1.495920 -4.727382 -25.496613 8.459134 -14.294287 1.062605 25.324301 -3.651642 3.336478 0.000000 0.000000 0.000000 -7.125000 0.000000 0.000000 -0.980036 26.289273 -0.444703 0.000000 0.000000 0.000000 -2.328452 -3.528753 8.662786 -12.589527 -20.682890 -2.306260 -21.629456 40.997827 24.970469 0.000000 0.000000 0.000000 7.125000 0.000000 0.000000 8.699732 56.376804 -2.439905
0.516946 17.571518 -13.805816 -1.764788 -1.835131 5.325718 0.000000 0.000000 0.000000 -17.360453 2.681649 -11.276306 0.872226 5.954533 16.652544 0.373764 0.520575 -11.748497 0.000000 -0.014074 -0.038768 0.000000 0.000000 0.000000 19.653175 1.624907 -11.231851 -1.071784 -6.581087 18.479997 -0.517456 2.883025 -12.907125 -0.328036 -3.681326 10.181843 0.311236 -0.322803 -2.803331 1.602652 -0.506495 2.458397 1.446339 -0.268412 4.117259 -2.179805 0.262862 -13.895485 0.794610 0.713967 29.775793 0.776752 0.169569 12.075785 0.000000 0.000000 0.000000 1.527019 -4.749535 -25.465365 8.466700 -14.306485 1.064470 25.342042 -3.672652 3.357999 0.000000 0.000000 0.000000 -7.125000 0.000000 0.000000 -0.966807 26.264986 -0.439225 0.000000 0.000000 0.000000 -2.328452 -3.533728 8.655053 -12.585171 -20.676374 -2.304712 -21.615500 41.010014 24.971949 0.000000 0.000000 0.000000 7.125000 0.000000 0.000000 8.715146 56.375380 -2.443997
0.516620 17.571620 -13.807060 -1.772582 -1.826257 5.325780 0.000000 0.000000 0.000000 -17.349496 2.672496 -11.283922 0.872920 5.956881 16.659342 0.373540 0.519140 -11.744398 0.000000 -0.019381 -0.053304 0.000000 0.000000 0.000000 19.663643 1.614517 -11.234341 -1.070580 -6.577639 18.469917 -0.516660 2.884921 -12.896657 -0.328420 -3.683142 10.186906 0.317682 -0.320519 -2.794337 1.604101 -0.503619 2.454519 1.444339 -0.266779 4.108017 -2.182961 0.257518 -13.892779 0.800302 0.705337 29.785762 0.778241 0.165999 12.079301 0.000000 0.000000 0.000000 1.557110 -4.775710 -25.420844 8.472281 -14.315522 1.065840 25.354902 -3.684381 3.372159 0.000000 0.000000 0.000000 -7.125000 0.000000 0.000000 -0.957198 26.248981 -0.435219 0.000000 0.000000 0.000000 -2.330281 -3.539382 8.652222 -12.581039 -20.670279 -2.303280 -21.602795 41.022060 24.968077 0.000000 0.000000 0.000000 7.125000 0.000000 0.000000 8.726943 56.368776 -2.445880
